# xmcd
#
# Track frame offsets:
#	182
#	33787
#	45027
#	82165
#	129925
#	138020
#	168135
#	178745
#	194427
#	253080
#	330095
#
# Disc length: 4507 seconds
#
# Revision: 1
# Processed by: cddbd v1.5.2PL0 Copyright (c) Steve Scherf et al.
# Submitted via: audiograbber 1.83.01
#
DISCID=7f11990b
DTITLE=Hank Williams by Sammy Kershaw - The Legend of Hank Williams 2-2
DYEAR=1996
DGENRE=Country
TTITLE0=Part Two
TTITLE1=How To Write Folk and Western Music To Sell (Spoken)
TTITLE2=There's A Tear In My Beer
TTITLE3=The Apology (Spoken)
TTITLE4=Jambalaya (On The Bayou)
TTITLE5=Please Make Up Your Mind
TTITLE6=It Just Don't Matter Now
TTITLE7=Kaw Liga
TTITLE8=Your Cheatin' Heart
TTITLE9=Trip To Canton
TTITLE10=The Angel Of Death
EXTD=
EXTT0=
EXTT1=
EXTT2=
EXTT3=
EXTT4=
EXTT5=
EXTT6=
EXTT7=
EXTT8=
EXTT9=
EXTT10=
PLAYORDER=
